<?xml version="1.0" encoding="utf-8"?>
<!-- Generator: Adobe Illustrator 21.1.0, SVG Export Plug-In . SVG Version: 6.00 Build 0)  -->
<svg version="1.1" id="Layer_1" xmlns="http://www.w3.org/2000/svg" xmlns:xlink="http://www.w3.org/1999/xlink" x="0px" y="0px"
	 viewBox="0 0 100 125" enable-background="new 0 0 100 125" xml:space="preserve">
<g>
	<path d="M61.8,52.8l3.1-3c0.2-0.2,0.3-0.4,0.3-0.6l0,0c0.1-0.6,0.1-1.1,0.1-1.7c0-7.4-5.3-13.6-12.3-15v-9c0-0.7-1-0.7-1,0v8.9
		c-0.6-0.1-1.3-0.1-1.9-0.1c-8.4,0-15.3,6.8-15.3,15.3c0,0.5,0,1,0.1,1.6l0,0c0,0.2,0.1,0.5,0.3,0.7l3.4,3C29.7,57,24,66.1,24,76
		c0,14.3,11.7,26,26,26c14.3,0,26-11.7,26-26C76,66.2,70.4,57.2,61.8,52.8z M74,77.2l-0.5-1c-0.2-0.4-0.8-0.3-0.9,0.1l-0.9,3.2
		c-1.7-3.1-2.6-7.1-3-9.3l2,0.2c0.3,0,0.6-0.3,0.5-0.5L71,67.7c0-0.2-0.1-0.3-0.2-0.4l-2.7-1.6c-0.1-2.7,0.2-4.2,0.6-4.8
		C72,65.1,74,70.4,74,76C74,76.4,74,76.8,74,77.2z M68,60.2c-1,1.2-1,4.1-0.9,5.9c0,0.2,0.1,0.3,0.2,0.4l2.7,1.6l0.1,1.3l-2-0.2
		c-0.3,0-0.6,0.2-0.5,0.6c0.3,2,1.6,8.1,3.8,11.3c0.2,0.3,0.8,0.3,0.9-0.1l0.9-3.1l0.2,0.3l-0.9,3.7c-0.1,0.2,0,0.4,0.2,0.5
		c0.1,0.1,0.3,0.1,0.4,0.2c-0.3,1.1-0.7,2.2-1.2,3.2c-1.7,0-4.8-5.1-6.5-13.1c-1.6-7.4-1.1-13.8,0.5-14.6
		C66.7,58.7,67.3,59.4,68,60.2z M44.1,72.7c5,0,11,2.5,14,8.1c1.7,3.1,1.9,6.5,0.8,9.5c-1.7,4.4-6.3,7.3-11.8,7.3
		c-4.8,0-11-2.5-14-8.1C28.7,81.4,34.4,72.7,44.1,72.7z M59,80.4c-3.3-6.2-10.2-8.6-14.9-8.6c-0.8,0-1.5,0.1-2.3,0.2
		c-0.4-2.5-0.7-5.1-0.7-7.6c8-1.8,16.6-6.8,16.3-10.8h0.9c2.5,0.9,4.8,2.3,6.8,3.9c-1.2,0.9-2.9,5.2-0.7,15.5
		c0.4,1.9,0.9,3.7,1.5,5.4c-2,1.3-4.1,2.5-6.3,3.5C59.5,81.3,59.2,80.8,59,80.4z M61.5,48.1l-0.5,0v-1.5h0.5V48.1z M50,34.2
		c7.3,0,13.3,6,13.3,13.3c0,0.2,0,0.4,0,0.6l-0.8,0v-2.5H60v2.5L44.5,48v-3h-1.3v3l-0.3,0v-3h-5.2v3l-0.9,0c0-0.2,0-0.3,0-0.5
		C36.7,40.2,42.7,34.2,50,34.2z M41.8,48l-3.2,0v-2h3.2V48z M61.7,50.1l-1.5,1.4h-20L38.5,50L61.7,50.1z M44.4,56.3l2,2
		c-2.5,1.2-7,2.6-10.5,2.3l1.8-2.4c0.2-0.3,0.1-0.7-0.2-0.8L36.4,57c-0.2-0.1-0.4,0-0.5,0.1l-2.5,2.5c-0.3-0.3-0.2-0.6-0.1-0.9
		c2.3-2.3,5.1-4.1,8.3-5.3h10.3c0,0.7-0.7,1.7-2,2.7l-3-1.6c-0.1-0.1-0.3-0.1-0.5,0l-2,1C44.2,55.6,44.2,56.1,44.4,56.3z M32.4,59.7
		c0.1,0.4,0.4,0.7,0.8,1c0.2,0.1,0.5,0.1,0.7,0l2.6-2.6l0.2,0.1l-1.9,2.5c-0.2,0.3-0.1,0.7,0.3,0.8c3.6,0.7,9.2-0.9,12.6-2.6
		c0.3-0.1,0.4-0.5,0.1-0.8l-2-2l1.1-0.6l3,1.7c0.2,0.1,0.4,0.1,0.5,0c1.7-1.3,2.6-2.5,2.6-3.7h3.5c0.2,2.6-4.9,6.4-11.8,8.8
		c-7.1,2.4-13,2.2-14.6,0.4C30.8,61.6,31.5,60.7,32.4,59.7z M29.5,63.6c2.1,2,7.2,1.6,10.6,1c0.1,2.5,0.3,5.1,0.7,7.6
		C33.5,73.6,29.2,80,31,86.9c-1-0.3-1.9-0.6-2.8-1c-1.4-3-2.1-6.4-2.1-9.9C26,71.5,27.3,67.2,29.5,63.6z M50,100
		c-9.2,0-17.2-5.2-21.2-12.8c0.8,0.3,1.7,0.6,2.5,0.8c0.2,0.7,0.5,1.3,0.9,2c3.1,5.7,9.4,8.6,14.9,8.6c0,0,0,0,0,0
		c5.9,0,10.9-3.1,12.7-7.9c1-2.5,1-5.3,0.2-8c2.2-1,4.3-2.2,6.3-3.4c1.5,3.9,3.3,7,5.2,7.4C67.5,94.6,59.4,100,50,100z"/>
	<path d="M50,44.4c2.6,0,4.8-2.2,4.8-4.8c0-2.6-2.2-4.8-4.8-4.8s-4.8,2.2-4.8,4.8S47.4,44.4,50,44.4z M50,36.8
		c1.5,0,2.8,1.3,2.8,2.8s-1.3,2.8-2.8,2.8c-1.5,0-2.8-1.3-2.8-2.8S48.5,36.8,50,36.8z"/>
	<circle cx="56.7" cy="43.7" r="1.8"/>
	<path d="M33.7,86.8l4.4,0.8l0.2,1.3l-3.4,0.5c-0.2,0-0.6,0.3-0.4,0.7c2.5,4.4,7.7,6.8,12.4,6.3c0.2,0,0.5-0.3,0.4-0.6l-0.8-2.6
		l1.3-0.2l1.9,2.4c0.1,0.2,0.4,0.2,0.6,0.1c4.1-1.7,6.3-5.6,5.6-9.8c-0.1-0.3-0.3-0.5-0.6-0.4L52,85.9l-0.4-1.1l3.1-1.4
		c0.2-0.1,0.4-0.4,0.2-0.7c-2.7-5.2-8.1-6.8-11.5-6.8c0,0,0,0,0,0c-0.4,0-0.5,0.3-0.5,0.5l0.3,3.7l-1.1,0.2l-1.4-3.6
		c-0.1-0.2-0.4-0.4-0.6-0.3c-5.5,1.6-7.3,6.4-6.8,10C33.3,86.6,33.5,86.8,33.7,86.8z M39.9,77.5l1.4,3.6c0.1,0.2,0.3,0.4,0.6,0.3
		l2-0.4c0.3,0,0.4-0.3,0.4-0.5L43.9,77c3.1,0.1,7.5,1.7,9.8,5.8l-3,1.4c-0.2,0.1-0.4,0.4-0.3,0.6l0.8,1.9c0.1,0.2,0.3,0.3,0.6,0.3
		l3.1-0.6c0.3,3.1-1.1,6.4-4.7,8.1l-1.9-2.3c-0.1-0.1-0.3-0.2-0.5-0.2l-2.2,0.3c-0.4,0.1-0.5,0.4-0.4,0.6l0.8,2.5
		c-3.8,0.2-8-1.6-10.4-5.2l3.2-0.4c0.3,0,0.5-0.3,0.4-0.6L39,87.1c0-0.2-0.2-0.4-0.4-0.4l-4.3-0.8C33.9,82.5,35.7,79,39.9,77.5z"/>
	<circle cx="48.1" cy="66.6" r="0.9"/>
	<circle cx="59.4" cy="60.1" r="0.9"/>
	<circle cx="60.7" cy="74.1" r="0.9"/>
	<circle cx="64.8" cy="86.8" r="0.9"/>
	<circle cx="59.4" cy="96.9" r="0.9"/>
	<circle cx="34.6" cy="69.8" r="0.9"/>
	<circle cx="28.3" cy="80.5" r="0.9"/>
</g>
</svg>
