<?xml version="1.0" encoding="utf-8"?>
<!-- Generator: Adobe Illustrator 21.1.0, SVG Export Plug-In . SVG Version: 6.00 Build 0)  -->
<svg version="1.1" id="Layer_1" xmlns="http://www.w3.org/2000/svg" xmlns:xlink="http://www.w3.org/1999/xlink" x="0px" y="0px"
	 viewBox="0 0 100 125"  enable-background="new 0 0 100 125" xml:space="preserve">
<title>LukeLightsaberLit2</title>
<desc>Created with Sketch.</desc>
<polygon fill="none" stroke="#000000" stroke-width="0.5" points="46.8,92.2 47.5,91.8 47.5,90.6 47.2,90.2 47.2,79.8 52.4,79.8 
	52.4,90.2 52,90.6 52,91.8 52.8,92.2 52.8,93.8 52,94.1 52,95 47.5,95 47.5,94.1 46.8,93.8 "/>
<rect x="47.5" y="94" width="1.6" height="0.2"/>
<rect x="50.5" y="94" width="1.6" height="0.2"/>
<rect x="47.6" y="91.7" width="1.6" height="0.2"/>
<rect x="50.5" y="91.7" width="1.6" height="0.2"/>
<rect x="47.5" y="90.5" width="4.6" height="0.4"/>
<path d="M46,80.8h1.2v5.6H46V80.8z M45.2,80.6H46v6h-0.8V80.6z"/>
<path d="M47.1,79.5h5.4v0.7h-5.4V79.5z M47.8,79.1h4l0.7,0.4h-5.4L47.8,79.1z M47.8,74.8h4l0.4,0.4h-4.8L47.8,74.8z M47.8,73.7h4
	l0.4,0.4h-4.8L47.8,73.7z M47.8,72.6h4l0.4,0.4h-4.8L47.8,72.6z M47.8,71.6h4l0.4,0.4h-4.8L47.8,71.6z M47.8,70.5h4l0.4,0.4h-4.8
	L47.8,70.5z M47.8,69.4h4l0.4,0.4h-4.8L47.8,69.4z M47.8,77h4l0.4,0.4h-4.8L47.8,77z M47.8,78h4l0.4,0.4h-4.8L47.8,78z M47.8,75.9h4
	l0.4,0.4h-4.8L47.8,75.9z M51.8,79.1h-4l-0.4-0.4h4.8L51.8,79.1z M51.8,74.8h-4l-0.4-0.4h4.8L51.8,74.8z M51.8,73.7h-4l-0.4-0.4h4.8
	L51.8,73.7z M51.8,72.6h-4l-0.4-0.4h4.8L51.8,72.6z M51.8,71.6h-4l-0.4-0.4h4.8L51.8,71.6z M51.8,70.5h-4l-0.4-0.4h4.8L51.8,70.5z
	 M51.8,77h-4l-0.4-0.4h4.8L51.8,77z M51.8,78h-4l-0.4-0.4h4.8L51.8,78z M51.8,75.9h-4l-0.4-0.4h4.8L51.8,75.9z"/>
<rect x="48.6" y="67.4" width="2.4" height="2.2"/>
<rect x="48.6" y="64.2" width="2.4" height="1.8"/>
<path fill="none" stroke="#000000" stroke-width="0.5" d="M51,61h2v0.4h-6.4V61h2v-2H51V61z M47.8,62.2l-0.4-0.4v-0.4h4.8v0.4
	l-0.4,0.4v1.6h-0.4v0.4h-3.2v-0.4h-0.4V62.2z"/>
<rect x="48.2" y="67.4" width="3.2" height="0.4"/>
<rect x="47.8" y="65.8" width="4" height="1.2"/>
<polygon fill="none" stroke="#000000" stroke-width="0.25" points="47.6,67 52,67 52.2,67.4 47.4,67.4 "/>
<rect x="48.6" y="60.9" width="2.4" height="0.4"/>
<rect x="47.8" y="62.1" width="4" height="0.2"/>
<polygon fill="none" stroke="#000000" stroke-width="0.5" points="49.3,91.6 50.3,91.6 50.8,92.1 50.8,93.8 50.3,94.2 49.3,94.2 
	48.8,93.8 48.8,92.1 "/>
<rect x="47.4" y="91.8" width="0.4" height="2.2"/>
<rect x="51.8" y="91.8" width="0.4" height="2.2"/>
<path fill="#E73100" d="M48.3,6.4C48.3,5.6,49,5,49.8,5l0,0c0.8,0,1.5,0.6,1.5,1.4V59h-2.9V6.4z"/>
</svg>
