<?xml version="1.0" encoding="utf-8"?>
<!-- Generator: Adobe Illustrator 21.1.0, SVG Export Plug-In . SVG Version: 6.00 Build 0)  -->
<svg version="1.1" id="Layer_1" xmlns="http://www.w3.org/2000/svg" xmlns:xlink="http://www.w3.org/1999/xlink" x="0px" y="0px"
	 viewBox="0 0 100 125" enable-background="new 0 0 100 125" xml:space="preserve">
<g>
	<path d="M70.1,83c0.6,0,1.1-0.4,1.1-0.9v-39v-5.4C71.2,27.9,61.7,20,50,20c-11.7,0-21.2,7.9-21.2,17.7v5.4v39
		c0,0.5,0.5,0.9,1.1,0.9h2.2l3.5,4.5c0.2,0.3,0.6,0.4,0.9,0.4h9.8v2.1h-1.9c-0.5,0-1,0.3-1.1,0.8l-1.6,6.6c0,0,0,0.3,0,0.4l0.6,2.5
		c0.1,0.4,0.6,0.8,1.1,0.8h12.9c0.5,0,1-0.3,1.1-0.8l0.6-2.5c0,0,0-0.3,0-0.4l-1.6-6.6c-0.1-0.4-0.6-0.8-1.1-0.8h-1.9V88h9.8
		c0.4,0,0.7-0.2,0.9-0.4l3.5-4.5H70.1z M31.4,34.5h8.7v2.7H31C31.1,36.3,31.2,35.4,31.4,34.5z M31,41.3h38v0.8H31V41.3z M69,37.2h-3
		v-2.7h2.7C68.8,35.4,68.9,36.3,69,37.2z M52.5,22c1.9,0.2,3.8,0.7,5.5,1.3h-5.5V22z M47.5,22l0,1.3H42C43.8,22.7,45.6,22.2,47.5,22
		z M40,24.3h8.1c0.3,0,0.6-0.2,0.6-0.5l0-1.9c1.1-0.1,1.6-0.1,2.7,0v1.9c0,0.3,0.3,0.5,0.6,0.5H60c4,2.1,7,5.4,8.3,9.3h-3
		c-0.3,0-0.6,0.2-0.6,0.5v3.6c0,0.3,0.3,0.5,0.6,0.5H69v1.3H31v-1.3h9.7c0.3,0,0.6-0.2,0.6-0.5v-3.6c0-0.3-0.3-0.5-0.6-0.5h-9
		C32.9,29.7,36,26.4,40,24.3z M31,44h38v37.1h-1.7H32.7H31V44z M53.6,86.1l1.2-3h5l-1.8,3H53.6z M48.8,86.1l-1.2-3h4.8l-1.2,3H48.8z
		 M42,86.1l-1.8-3h5l1.2,3H42z M34.7,83h3l1.8,3h-2.4L34.7,83z M44.5,99.1l-0.2-0.6h11.4l-0.2,0.6H44.5z M55.7,96.6H44.3l1.1-4.7
		h2.1h5.1h2.1L55.7,96.6z M48.6,90.1V88h2.8v2.1H48.6z M62.9,86.1h-2.4l1.8-3h3L62.9,86.1z"/>
	<path d="M43.7,34.5h12.6c0.2,0,0.3-0.1,0.4-0.2c0.1-0.1,0.1-0.3,0.1-0.4l-1.9-7.5c-0.1-0.2-0.3-0.4-0.6-0.4h-8.8
		c-0.3,0-0.5,0.2-0.6,0.4L43.1,34c0,0.1,0,0.3,0.1,0.4C43.4,34.5,43.5,34.5,43.7,34.5z M46.1,27h7.9l1.7,6.6H44.4L46.1,27z"/>
	<ellipse cx="50" cy="30.3" rx="3" ry="2.5"/>
	<path d="M53.9,56.3h-7.9c-0.3,0-0.6,0.2-0.6,0.5v14.1c0,0.3,0.3,0.5,0.6,0.5h7.9c0.3,0,0.6-0.2,0.6-0.5V56.8
		C54.5,56.5,54.2,56.3,53.9,56.3z M53.4,70.3h-6.8V57.2h6.8V70.3z"/>
	<path d="M43.7,38.2h12.6c0.3,0,0.6-0.2,0.6-0.5v-1.1c0-0.3-0.3-0.5-0.6-0.5H43.7c-0.3,0-0.6,0.2-0.6,0.5v1.1
		C43.1,38,43.4,38.2,43.7,38.2z M44.3,37.1h11.5v0.1H44.3V37.1z"/>
	<path d="M60.7,37.7c1.2,0,2.2-0.8,2.2-1.8s-1-1.8-2.2-1.8c-1.2,0-2.2,0.8-2.2,1.8S59.5,37.7,60.7,37.7z M60.7,35
		c0.6,0,1.1,0.4,1.1,0.9s-0.5,0.9-1.1,0.9c-0.6,0-1.1-0.4-1.1-0.9S60.1,35,60.7,35z"/>
	<path d="M37.3,50.8h25.4c0.3,0,0.6-0.2,0.6-0.5v-0.8c0-0.3-0.3-0.5-0.6-0.5H37.3c-0.3,0-0.6,0.2-0.6,0.5v0.8
		C36.7,50.6,37,50.8,37.3,50.8z"/>
	<path d="M37.3,54.4h25.4c0.3,0,0.6-0.2,0.6-0.5v-0.8c0-0.3-0.3-0.5-0.6-0.5H37.3c-0.3,0-0.6,0.2-0.6,0.5v0.8
		C36.7,54.1,37,54.4,37.3,54.4z"/>
	<path d="M37.3,47.2h25.4c0.3,0,0.6-0.2,0.6-0.5v-0.8c0-0.3-0.3-0.5-0.6-0.5H37.3c-0.3,0-0.6,0.2-0.6,0.5v0.8
		C36.7,47,37,47.2,37.3,47.2z"/>
	<path d="M50,72.7c-2.5,0-4.5,1.7-4.5,3.8c0,2.1,2,3.8,4.5,3.8c2.5,0,4.5-1.7,4.5-3.8C54.5,74.4,52.5,72.7,50,72.7z M50,79.3
		c-1.9,0-3.4-1.3-3.4-2.8c0-1.6,1.5-2.8,3.4-2.8c1.9,0,3.4,1.3,3.4,2.8C53.4,78,51.9,79.3,50,79.3z"/>
	<path d="M38.5,80.2c0.3,0,0.6-0.2,0.6-0.5v-6.2c0-0.3-0.3-0.5-0.6-0.5h-5.8c-0.3,0-0.6,0.2-0.6,0.5v6.2c0,0.3,0.3,0.5,0.6,0.5H38.5
		z M33.2,74h4.7v5.2h-4.7V74z"/>
	<path d="M35.6,71.3h2.9c0.3,0,0.6-0.2,0.6-0.5s-0.3-0.5-0.6-0.5h-2.9c-0.3,0-0.6,0.2-0.6,0.5S35.3,71.3,35.6,71.3z"/>
	<path d="M35.6,69.2h2.9c0.3,0,0.6-0.2,0.6-0.5c0-0.3-0.3-0.5-0.6-0.5h-2.9c-0.3,0-0.6,0.2-0.6,0.5C35,68.9,35.3,69.2,35.6,69.2z"/>
	<path d="M35.6,67h2.9c0.3,0,0.6-0.2,0.6-0.5c0-0.3-0.3-0.5-0.6-0.5h-2.9c-0.3,0-0.6,0.2-0.6,0.5C35,66.8,35.3,67,35.6,67z"/>
	<path d="M35.6,64.9h2.9c0.3,0,0.6-0.2,0.6-0.5c0-0.3-0.3-0.5-0.6-0.5h-2.9c-0.3,0-0.6,0.2-0.6,0.5C35,64.7,35.3,64.9,35.6,64.9z"/>
	<path d="M35.6,62.8h2.9c0.3,0,0.6-0.2,0.6-0.5c0-0.3-0.3-0.5-0.6-0.5h-2.9c-0.3,0-0.6,0.2-0.6,0.5C35,62.5,35.3,62.8,35.6,62.8z"/>
	<path d="M87.5,101l-2.3-10.2c-0.1-0.4-0.6-0.8-1.1-0.8h-1.6v-0.8c0.5-0.1,1-0.4,1-0.9v-9.5c0-0.5-0.4-0.8-1-0.9V63.5
		c0.5-0.1,1-0.4,1-0.9V43.1c0-0.5-0.5-0.9-1.1-0.9h-9.2c-0.6,0-1.1,0.4-1.1,0.9v45.2c0,0.5,0.4,0.8,1,0.9v0.8h-1.6
		c-0.5,0-1,0.3-1.1,0.8L68.1,101c0,0.2,0,0.4,0.1,0.5l1.3,2.9c0.2,0.4,0.6,0.6,1,0.6h14.5c0.5,0,0.9-0.2,1-0.6l1.3-2.8c0,0,0,0,0,0
		C87.5,101.4,87.5,101.1,87.5,101z M74.3,77.8V63.5h6v14.3H74.3z M74.3,79.7h6.9v7.7h-6.9V79.7z M81.3,44v17.6h-6.9V44H81.3z
		 M75.3,89.2h5v0.8h-5C75.3,90.1,75.3,89.2,75.3,89.2z M72.4,91.9h1.7h7.3h1.7l1.9,8.3H70.5L72.4,91.9z M71.3,103.1l-0.5-1h13.9
		l-0.5,1H71.3z"/>
	<path d="M12.6,101.6C12.6,101.6,12.6,101.6,12.6,101.6l1.3,2.8c0.2,0.4,0.6,0.6,1,0.6h14.5c0.5,0,0.9-0.2,1-0.6l1.3-2.9
		c0-0.1,0.1-0.3,0.1-0.5l-2.3-10.2c-0.1-0.4-0.6-0.8-1.1-0.8H27v-0.8c0.5-0.1,1-0.4,1-0.9V43.1c0-0.5-0.5-0.9-1.1-0.9h-9.2
		c-0.6,0-1.1,0.4-1.1,0.9v19.5c0,0.5,0.4,0.8,1,0.9v14.4c-0.5,0.1-1,0.4-1,0.9v9.5c0,0.5,0.4,0.8,1,0.9v0.8h-1.6
		c-0.5,0-1,0.3-1.1,0.8L12.5,101C12.5,101.1,12.5,101.4,12.6,101.6z M19.7,77.8V63.5h6v14.3H19.7z M25.7,87.4h-6.9v-7.7h6.9V87.4z
		 M25.7,44v17.6h-6.9V44H25.7z M24.7,90.1h-5v-0.8h5V90.1z M29.5,100.3H15l1.9-8.3h1.7h7.3h1.7L29.5,100.3z M15.7,103.1l-0.5-1h13.9
		l-0.5,1H15.7z"/>
</g>
</svg>
