<?xml version="1.0" encoding="utf-8"?>
<!-- Generator: Adobe Illustrator 21.1.0, SVG Export Plug-In . SVG Version: 6.00 Build 0)  -->
<svg version="1.1" id="Layer_1" xmlns="http://www.w3.org/2000/svg" xmlns:xlink="http://www.w3.org/1999/xlink" x="0px" y="0px"
	 viewBox="0 0 100 125" enable-background="new 0 0 100 125" xml:space="preserve">
<g>
	<g>
		<path d="M86.1,76.3c-3.9-7.8-5.9-16.2-5.9-25c0-0.4,0-3.4,0-3.7C80.3,32.4,66.7,20,50,20c-16.7,0-30.3,12.4-30.3,27.6
			c0,0.2,0,3.3,0,3.7c0,8.8-2,17.2-5.9,25c-1.9,3.8-1.6,8.9,0.1,12.9c2.1,4.7,4.3,8.6,6.7,12c2.9,4,7.5,4.4,10.5,3.2
			c12.3-5,25.4-5,37.6,0c4.4,1.8,8.4-0.3,10.5-3.2c2.4-3.4,4.6-7.3,6.7-12C87.8,85.1,88.1,80.3,86.1,76.3z M73.2,64.6
			c0.5,2.6,4.4,4,4.4,5.2c0.2,2.3-2.8,8.1-6.5,12.4c-3.7,4.4-3.9,3.5-7.8,0.2c-11.1-9.2-15.6-9.1-26.6,0c-4.3,3.6-4.1,4.2-7.8-0.2
			c-3.7-4.3-6.7-10.1-6.5-12.4c0.1-1.2,4.1-2.9,4.4-5.2c0.4-2.4-2.5-5.5-2.7-10.1c0.1,0,0.2,0,0.3-0.1c1,9.4,5.9,11.3,13.4,5.4
			c-2.3,1.9-2.4,2.1-5.4,3.7c-3.8,1.9-6.4,3.6-6.9,5.6c-1,3.8,4.7,13.4,9,13.4c1.6,0,3.5-1.7,5.9-3.8c8.5-7.5,10.6-7.8,19.5,0
			c2.4,2.1,4.3,3.8,5.9,3.8c4,0,10-9.4,9-13.4c-0.5-1.9-3.2-3.5-6.9-5.6c-2.9-1.6-3.6-2.2-5.4-3.7c10.2,7.9,12.8,0.2,13.4-5.4
			c0.1,0,0.2,0,0.3,0C75.7,59.4,72.7,62.2,73.2,64.6z M73.6,54.1c-0.7,9.8-6.1,6.9-8.2,5.3c-2.6-1.9-9.3-6.6-14.4-7.1
			C58.7,52.3,66.3,53,73.6,54.1z M60.9,61.6c1.1,0.9,2.1,1.7,2.8,2.3c1.2,0.9,8.4,4.2,8.8,5.9c0.5,2.6-4.3,10.6-7,10.6
			c-0.8,0-2.8-1.7-4.5-3.3c-9.5-8.4-12.8-8.2-22.1,0c-1.7,1.5-3.7,3.3-4.5,3.3c-2.7,0-7.6-7.9-7-10.6c0.5-1.9,7.1-4.6,8.8-5.9
			c0.7-0.6,1.7-1.3,2.8-2.3C49.2,53,50.9,53.2,60.9,61.6z M34.6,59.4c-3.4,2.3-7.4,3.7-8.2-5.3c7.3-1.2,14.9-1.8,22.7-1.8
			C43.9,52.9,37.3,57.7,34.6,59.4z M21.7,52.8c0-0.3,0-0.6,0-0.9c17.7-3.5,40.3-2.9,56.5,0c0,0.3,0,0.6,0,0.9
			C59.7,49.1,39.5,49.3,21.7,52.8z M50,22.2c15.6,0,28.2,11.4,28.2,25.4c0,0.2,0,1.5,0,2c-18.8-3.3-39-3.1-56.5,0c0-0.5,0-1.9,0-2.1
			C21.7,33.6,34.4,22.2,50,22.2z M15.6,77.3c3.5-7,5.5-14.5,6-22.3c0.1,0,0.3-0.1,0.4-0.1c0.5,4.9,2.9,8.1,2.7,9.3
			c-0.3,1.5-4.2,2.7-4.5,5.4c-0.5,3.8,4.1,10.7,7.1,14.1c4.8,5.7,5.9,4.4,10.7,0.5c10.4-8.7,14.1-8.3,24,0c4.9,4,5.9,5.1,10.7-0.5
			c2.9-3.4,7.4-10.3,7.1-14.1c-0.3-2.5-4-3.8-4.5-5.4c-0.3-1.2,2.1-3.8,2.7-9.3c0.1,0,0.3,0,0.4,0.1c0.5,7.8,2.5,15.3,6,22.3
			c1.3,2.6,1.2,5,1,6.5c-1.9,4.5-7.7,13.1-9.9,13.1c-0.5,0-1-0.1-1.5-0.2c0.1-0.4,0.2-0.9,0.2-1.3c0-2.2-1.7-4-3.8-4
			c-1.4,0-2.6,0.8-3.3,2c-0.7-0.5-1.4-0.9-2.1-1.4c-12.7-8.7-17.2-8.7-30,0c-3.7,2.5-7.3,4.9-10.4,4.9c-2.2,0-8.1-8.5-9.9-13.1
			C14.4,81.6,14.6,79.4,15.6,77.3z M70.3,98.3c-1.5,0-2.8-1.3-2.8-2.9c0-1.6,1.2-2.9,2.8-2.9c1.5,0,2.8,1.3,2.8,2.9
			C73.1,97,71.9,98.3,70.3,98.3z M77.7,99.8c-2.5,3.4-6,3.4-8.1,2.5c-12.5-5.1-26-5.4-39.1,0c-2.9,1.2-6.1,0.3-8.1-2.5
			c-2.2-3.1-4.3-6.7-6.2-10.9c2.6,4.4,6.3,9.1,8.4,9.1c3.5,0,7.1-2.5,11-5.1c12.3-8.4,16.5-8.4,28.9,0c0.8,0.5,1.5,1,2.3,1.5
			c-0.1,0.3-0.1,0.7-0.1,1c0,2.2,1.7,4,3.8,4c1.3,0,2.4-0.7,3.1-1.7c0.7,0.2,1.3,0.3,2,0.3c2.1,0,5.8-4.6,8.4-9.1
			C81.9,93.2,79.9,96.7,77.7,99.8z"/>
		<path d="M75.2,83.5l2.2,1.1c0.6,0.3,1.1-0.7,0.4-1l-2.2-1.1C75.1,82.2,74.6,83.2,75.2,83.5z"/>
		<path d="M76.9,81.1l2.2,1.1c0.6,0.3,1.1-0.7,0.4-1l-2.2-1.1C76.7,79.8,76.3,80.8,76.9,81.1z"/>
		<path d="M78.6,78.6l2.2,1.1c0.6,0.3,1.1-0.7,0.4-1L79,77.7C78.4,77.4,78,78.4,78.6,78.6z"/>
		<path d="M80.2,76.2l2.2,1.1c0.6,0.3,1.1-0.7,0.4-1l-2.2-1.1C80.1,75,79.6,76,80.2,76.2z"/>
		<path d="M22.5,84.5l2.2-1.1c0.6-0.3,0.2-1.3-0.4-1l-2.2,1.1C21.4,83.9,21.9,84.9,22.5,84.5z"/>
		<path d="M20.9,82.1l2.2-1.1c0.6-0.3,0.2-1.3-0.4-1l-2.2,1.1C19.8,81.4,20.3,82.4,20.9,82.1z"/>
		<path d="M19.2,79.7l2.2-1.1c0.6-0.3,0.2-1.3-0.4-1l-2.2,1.1C18.1,79,18.6,80,19.2,79.7z"/>
		<path d="M17.6,77.3l2.2-1.1c0.6-0.3,0.2-1.3-0.4-1l-2.2,1.1C16.5,76.6,16.9,77.6,17.6,77.3z"/>
	</g>
</g>
</svg>
