<?xml version="1.0" encoding="utf-8"?>
<!-- Generator: Adobe Illustrator 22.0.1, SVG Export Plug-In . SVG Version: 6.00 Build 0)  -->
<svg version="1.1" id="Layer_1" xmlns="http://www.w3.org/2000/svg" xmlns:xlink="http://www.w3.org/1999/xlink" x="0px" y="0px"
	 viewBox="0 0 100 125" style="enable-background:new 0 0 100 125;" xml:space="preserve">
<style type="text/css">
	.st0{fill:#FFFFFF;}
</style>
<g>
	<path class="st0" d="M86,59.8c-4.5-4.5-15.9-3-17.6-2.7c-2.9-5.6-10.2-9.6-18.7-9.6c-8.4,0-15.7,3.9-18.6,9.5
		c-2.8-0.4-12.9-1.4-17.1,2.8c-0.3,0.3-0.4,0.7-0.2,1c0.1,0.4,0.5,0.6,0.8,0.7c9.2,0.9,12.1,7.1,12.2,7.4c0.2,0.4,0.5,0.6,0.9,0.6
		h0.1l4-0.4c3.3,5,10.1,8.4,17.9,8.4c7.9,0,14.7-3.5,18-8.5l4.5,0.5h0.1c0.4,0,0.8-0.2,0.9-0.6c0-0.1,2.9-6.5,12.2-7.4
		c0.4,0,0.7-0.3,0.8-0.7C86.3,60.5,86.3,60.1,86,59.8z M28.3,67.4c-1-1.7-4-6-10.9-7.5c3.9-1.8,10.3-1.3,13-1
		c-0.1,0.4-0.2,0.7-0.3,1.1v-0.1c0,0-5.4-0.9-7.3,1c4.3,0.4,5.6,3.4,5.6,3.4l1.6-0.2c0.2,1,0.5,2,0.9,2.9L28.3,67.4z M49.7,75.5
		c-7.4,0-13.8-3.3-16.6-7.9l0,0c-0.9-1.5-1.4-3.2-1.4-5c0-7.2,8.1-13,18-13s18,5.8,18,13S59.7,75.5,49.7,75.5z M71.7,67.4l-2.9-0.3
		c0.4-0.9,0.7-1.9,0.8-2.9l1.4,0.1c0,0,1.5-3,6.3-3.4c-1.9-1.6-6.5-1.2-7.9-1.1c-0.1-0.3-0.2-0.6-0.2-0.9c2.2-0.3,9.2-1,13.5,0.9
		C75.7,61.4,72.6,65.7,71.7,67.4z"/>
	<circle class="st0" cx="40.7" cy="64.5" r="2"/>
	<circle class="st0" cx="58.7" cy="64.5" r="2"/>
	<path class="st0" d="M51.7,64.5c-0.6,0-1,0.4-1,1s-0.4,1-1,1s-1-0.4-1-1s-0.4-1-1-1s-1,0.4-1,1c0,1.7,1.3,3,3,3s3-1.3,3-3
		C52.7,64.9,52.3,64.5,51.7,64.5z"/>
</g>
</svg>
